{"title":"Impractical.Jokers.S02E28.HDTV.x264-PLAYNOW.mp4","uid":9342213,"size":217365366,"categoryP":"video","categoryS":"tv_shows","magnet":"?xt=urn:btih:715aac851e3da3a87db183ca9e7aa041ae788ec2&amp;dn=Impractical.Jokers.S02E28.HDTV.x264-PLAYNOW.mp4&amp;tr=udp%3A%2F%2Ftracker.openbittorrent.com%3A80&amp;tr=udp%3A%2F%2Fopen.demonii.com%3A1337&amp;tr=udp%3A%2F%2Ftracker.coppersurfer.tk%3A6969&amp;tr=udp%3A%2F%2Fexodus.desync.com%3A6969","seeders":0,"leechers":1,"uploader":"fiddy01604","files":1,"time":1386956896,"description":"General\nComplete name                   C:DownloadsVideoImpractical.Jokers.S02E28.HDTV.x264-PLAYNOW.mp4\nFormat                         : MPEG-4\nFormat profile                 : Base Media\nCodec ID                       : isom\nFile size                      : 207 MiB\nDuration                       : 20mn 42s\nOverall bit rate mode          : Variable\nOverall bit rate               : 1 399 Kbps\nEncoded date                   : UTC 2013-12-13 05:12:31\nTagged date                    : UTC 2013-12-13 05:12:31\nWriting application            : My MP4Box GUI 0.6.0.6 &lt;http://my-mp4box-gui.zymichost.com&gt;\n\nVideo\nID                             : 1\nFormat                         : AVC\nFormat/Info                    : Advanced Video Codec\nFormat profile                 : &lt;a class=&quot;__cf_email__&quot; href=&quot;/cdn-cgi/l/email-protection&quot; data-cfemail=&quot;6820010f0028245b4658&quot;&gt;[email&amp;#160;protected]&lt;/a&gt;&lt;script data-cfhash='f9e31' type=&quot;text/javascript&quot;&gt;\n/* &lt;![CDATA[ */!function(){try{var t=&quot;currentScript&quot;in document?document.currentScript:function(){for(var t=document.getElementsByTagName(&quot;script&quot;),e=t.length;e--;)if(t[e].getAttribute(&quot;data-cfhash&quot;))return t[e]}();if(t&amp;&amp;t.previousSibling){var e,r,n,i,c=t.previousSibling,a=c.getAttribute(&quot;data-cfemail&quot;);if(a){for(e=&quot;&quot;,r=parseInt(a.substr(0,2),16),n=2;a.length-n;n+=2)i=parseInt(a.substr(n,2),16)^r,e+=String.fromCharCode(i);e=document.createTextNode(e),c.parentNode.replaceChild(e,c)}t.parentNode.removeChild(t);}}catch(u){}}()/* ]]&gt; */&lt;/script&gt;\nFormat settings, CABAC         : Yes\nFormat settings, ReFrames      : 5 frames\nCodec ID                       : avc1\nCodec ID/Info                  : Advanced Video Coding\nDuration                       : 20mn 42s\nBit rate                       : 1 267 Kbps\nMaximum bit rate               : 3 709 Kbps\nWidth                          : 720 pixels\nHeight                         : 404 pixels\nDisplay aspect ratio           : 16:9\nFrame rate mode                : Constant\nFrame rate                     : 29.970 fps\nColor space                    : YUV\nChroma subsampling             : 4:2:0\nBit depth                      : 8 bits\nScan type                      : Progressive\nBits/(Pixel*Frame)             : 0.145\nStream size                    : 188 MiB (91%)\nWriting library                : x264 core 92 r1510 33d382a\n\n\nAudio\nID                             : 2\nFormat                         : AAC\nFormat/Info                    : Advanced Audio Codec\nFormat profile                 : LC\nCodec ID                       : 40\nDuration                       : 20mn 42s\nBit rate mode                  : Variable\nBit rate                       : 128 Kbps\nMaximum bit rate               : 149 Kbps\nChannel count                  : 2 channels\nChannel positions              : Front: L R\nSampling rate                  : 48.0 KHz\nCompression mode               : Lossy\nStream size                    : 19.0 MiB (9%)\nLanguage                       : English\nEncoded date                   : UTC 2013-12-13 05:12:35\nTagged date                    : UTC 2013-12-13 05:12:36\n\n\n\nScreenshots\n &lt;a href=&quot;\nhttp://i.imgur.com/4g746Za.jpg&quot; rel=&quot;nofollow&quot; target=&quot;_NEW&quot;&gt;\nhttp://i.imgur.com/4g746Za.jpg&lt;/a&gt;\n","torrent":{"xt":"urn:btih:715aac851e3da3a87db183ca9e7aa041ae788ec2","amp;dn":"Impractical.Jokers.S02E28.HDTV.x264-PLAYNOW.mp4","amp;tr":["udp%3A%2F%2Ftracker.openbittorrent.com%3A80","udp%3A%2F%2Fopen.demonii.com%3A1337","udp%3A%2F%2Ftracker.coppersurfer.tk%3A6969","udp%3A%2F%2Fexodus.desync.com%3A6969"],"infoHash":"715aac851e3da3a87db183ca9e7aa041ae788ec2","infoHashBuffer":{"type":"Buffer","data":[113,90,172,133,30,61,163,168,125,177,131,202,158,122,160,65,174,120,142,194]},"announce":[],"urlList":[]}}